<?xml version='1.0' encoding='UTF-8'?>
<svg xmlns="http://www.w3.org/2000/svg" xmlns:xlink="http://www.w3.org/1999/xlink" height="192px" version="1.1" viewBox="0 0 382 192" width="382px">
    
    <title>keyboard-small</title>
    <desc>Created with Sketch.</desc>
    <defs />
    <g fill="none" fill-rule="evenodd" id="keyboard-small" stroke="none" stroke-width="1">
        <rect height="192" id="keyboard-small-bg" width="382" x="0" y="0" />
        <g transform="translate(14.000000, 16.000000)">
            <image height="32" id="keyboard-small/comma-bg-down" width="28" x="56" y="80" xlink:href="keyboard-small/comma-bg-down.png" />
            <image height="32" id="keyboard-small/comma-bg-up" width="28" x="56" y="80" xlink:href="keyboard-small/comma-bg-up.png" />
            <image height="32" id="keyboard-small/doublequotes-bg-down" width="28" x="92" y="80" xlink:href="keyboard-small/doublequotes-bg-down.png" />
            <image height="32" id="keyboard-small/doublequotes-bg-up" width="28" x="92" y="80" xlink:href="keyboard-small/doublequotes-bg-up.png" />
            <image height="32" id="keyboard-small/singlequote-bg-down" width="28" x="128" y="80" xlink:href="keyboard-small/singlequote-bg-down.png" />
            <image height="32" id="keyboard-small/singlequote-bg-up" width="28" x="128" y="80" xlink:href="keyboard-small/singlequote-bg-up.png" />
            <image height="32" id="keyboard-small/colon-bg-down" width="28" x="164" y="80" xlink:href="keyboard-small/colon-bg-down.png" />
            <image height="32" id="keyboard-small/colon-bg-up" width="28" x="164" y="80" xlink:href="keyboard-small/colon-bg-up.png" />
            <image height="32" id="keyboard-small/semicolon-bg-down" width="28" x="200" y="80" xlink:href="keyboard-small/semicolon-bg-down.png" />
            <image height="32" id="keyboard-small/semicolon-bg-up" width="28" x="200" y="80" xlink:href="keyboard-small/semicolon-bg-up.png" />
            <image height="32" id="keyboard-small/exclamation-bg-down" width="28" x="236" y="80" xlink:href="keyboard-small/exclamation-bg-down.png" />
            <image height="32" id="keyboard-small/exclamation-bg-up" width="28" x="236" y="80" xlink:href="keyboard-small/exclamation-bg-up.png" />
            <image height="32" id="keyboard-small/question-bg-down" width="28" x="272" y="80" xlink:href="keyboard-small/question-bg-down.png" />
            <image height="32" id="keyboard-small/question-bg-up" width="28" x="272" y="80" xlink:href="keyboard-small/question-bg-up.png" />
            <image height="32" id="keyboard-small/slash-bg-down" width="28" x="20" y="40" xlink:href="keyboard-small/slash-bg-down.png" />
            <image height="32" id="keyboard-small/slash-bg-up" width="28" x="20" y="40" xlink:href="keyboard-small/slash-bg-up.png" />
            <image height="32" id="keyboard-small/pound-bg-down" width="28" x="56" y="40" xlink:href="keyboard-small/pound-bg-down.png" />
            <image height="32" id="keyboard-small/pound-bg-up" width="28" x="56" y="40" xlink:href="keyboard-small/pound-bg-up.png" />
            <image height="32" id="keyboard-small/dollar-bg-down" width="28" x="92" y="40" xlink:href="keyboard-small/dollar-bg-down.png" />
            <image height="32" id="keyboard-small/dollar-bg-up" width="28" x="92" y="40" xlink:href="keyboard-small/dollar-bg-up.png" />
            <image height="32" id="keyboard-small/underscore-bg-down" width="28" x="128" y="40" xlink:href="keyboard-small/underscore-bg-down.png" />
            <image height="32" id="keyboard-small/underscore-bg-up" width="28" x="128" y="40" xlink:href="keyboard-small/underscore-bg-up.png" />
            <image height="32" id="keyboard-small/ampersand-bg-down" width="28" x="164" y="40" xlink:href="keyboard-small/ampersand-bg-down.png" />
            <image height="32" id="keyboard-small/ampersand-bg-up" width="28" x="164" y="40" xlink:href="keyboard-small/ampersand-bg-up.png" />
            <image height="32" id="keyboard-small/hyphen-bg-down" width="28" x="200" y="40" xlink:href="keyboard-small/hyphen-bg-down.png" />
            <image height="32" id="keyboard-small/hyphen-bg-up" width="28" x="200" y="40" xlink:href="keyboard-small/hyphen-bg-up.png" />
            <image height="32" id="keyboard-small/plus-bg-down" width="28" x="236" y="40" xlink:href="keyboard-small/plus-bg-down.png" />
            <image height="32" id="keyboard-small/plus-bg-up" width="28" x="236" y="40" xlink:href="keyboard-small/plus-bg-up.png" />
            <image height="32" id="keyboard-small/left-parenthesis-bg-down" width="28" x="272" y="40" xlink:href="keyboard-small/left-parenthesis-bg-down.png" />
            <image height="32" id="keyboard-small/left-parenthesis-bg-up" width="28" x="272" y="40" xlink:href="keyboard-small/left-parenthesis-bg-up.png" />
            <image height="32" id="keyboard-small/right-parenthesis-bg-down" width="28" x="308" y="40" xlink:href="keyboard-small/right-parenthesis-bg-down.png" />
            <image height="32" id="keyboard-small/right-parenthesis-bg-up" width="28" x="308" y="40" xlink:href="keyboard-small/right-parenthesis-bg-up.png" />
            <image height="32" id="keyboard-small/1-bg-down" width="28" x="2" y="0" xlink:href="keyboard-small/1-bg-down.png" />
            <image height="32" id="keyboard-small/1-bg-up" width="28" x="2" y="0" xlink:href="keyboard-small/1-bg-up.png" />
            <image height="32" id="keyboard-small/2-bg-down" width="28" x="38" y="0" xlink:href="keyboard-small/2-bg-down.png" />
            <image height="32" id="keyboard-small/2-bg-up" width="28" x="38" y="0" xlink:href="keyboard-small/2-bg-up.png" />
            <image height="32" id="keyboard-small/3-bg-down" width="28" x="74" y="0" xlink:href="keyboard-small/3-bg-down.png" />
            <image height="32" id="keyboard-small/3-bg-up" width="28" x="74" y="0" xlink:href="keyboard-small/3-bg-up.png" />
            <image height="32" id="keyboard-small/4-bg-down" width="28" x="110" y="0" xlink:href="keyboard-small/4-bg-down.png" />
            <image height="32" id="keyboard-small/4-bg-up" width="28" x="110" y="0" xlink:href="keyboard-small/4-bg-up.png" />
            <image height="32" id="keyboard-small/5-bg-down" width="28" x="146" y="0" xlink:href="keyboard-small/5-bg-down.png" />
            <image height="32" id="keyboard-small/5-bg-up" width="28" x="146" y="0" xlink:href="keyboard-small/5-bg-up.png" />
            <image height="32" id="keyboard-small/6-bg-down" width="28" x="182" y="0" xlink:href="keyboard-small/6-bg-down.png" />
            <image height="32" id="keyboard-small/6-bg-up" width="28" x="182" y="0" xlink:href="keyboard-small/6-bg-up.png" />
            <image height="32" id="keyboard-small/7-bg-down" width="28" x="218" y="0" xlink:href="keyboard-small/7-bg-down.png" />
            <image height="32" id="keyboard-small/7-bg-up" width="28" x="218" y="0" xlink:href="keyboard-small/7-bg-up.png" />
            <image height="32" id="keyboard-small/8-bg-down" width="28" x="254" y="0" xlink:href="keyboard-small/8-bg-down.png" />
            <image height="32" id="keyboard-small/8-bg-up" width="28" x="254" y="0" xlink:href="keyboard-small/8-bg-up.png" />
            <image height="32" id="keyboard-small/9-bg-down" width="28" x="290" y="0" xlink:href="keyboard-small/9-bg-down.png" />
            <image height="32" id="keyboard-small/9-bg-up" width="28" x="290" y="0" xlink:href="keyboard-small/9-bg-up.png" />
            <image height="32" id="keyboard-small/0-bg-down" width="28" x="326" y="0" xlink:href="keyboard-small/0-bg-down.png" />
            <image height="32" id="keyboard-small/0-bg-up" width="28" x="326" y="0" xlink:href="keyboard-small/0-bg-up.png" />
            <image height="32" id="keyboard-small/z-bg-down" width="28" x="56" y="80" xlink:href="keyboard-small/z-bg-down.png" />
            <image height="32" id="keyboard-small/z-bg-up" width="28" x="56" y="80" xlink:href="keyboard-small/z-bg-up.png" />
            <image height="32" id="keyboard-small/x-bg-down" width="28" x="92" y="80" xlink:href="keyboard-small/x-bg-down.png" />
            <image height="32" id="keyboard-small/x-bg-up" width="28" x="92" y="80" xlink:href="keyboard-small/x-bg-up.png" />
            <image height="32" id="keyboard-small/c-bg-down" width="28" x="128" y="80" xlink:href="keyboard-small/c-bg-down.png" />
            <image height="32" id="keyboard-small/c-bg-up" width="28" x="128" y="80" xlink:href="keyboard-small/c-bg-up.png" />
            <image height="32" id="keyboard-small/v-bg-down" width="28" x="164" y="80" xlink:href="keyboard-small/v-bg-down.png" />
            <image height="32" id="keyboard-small/v-bg-up" width="28" x="164" y="80" xlink:href="keyboard-small/v-bg-up.png" />
            <image height="32" id="keyboard-small/b-bg-down" width="28" x="200" y="80" xlink:href="keyboard-small/b-bg-down.png" />
            <image height="32" id="keyboard-small/b-bg-up" width="28" x="200" y="80" xlink:href="keyboard-small/b-bg-up.png" />
            <image height="32" id="keyboard-small/n-bg-down" width="28" x="236" y="80" xlink:href="keyboard-small/n-bg-down.png" />
            <image height="32" id="keyboard-small/n-bg-up" width="28" x="236" y="80" xlink:href="keyboard-small/n-bg-up.png" />
            <image height="32" id="keyboard-small/m-bg-down" width="28" x="272" y="80" xlink:href="keyboard-small/m-bg-down.png" />
            <image height="32" id="keyboard-small/m-bg-up" width="28" x="272" y="80" xlink:href="keyboard-small/m-bg-up.png" />
            <image height="32" id="keyboard-small/a-bg-down" width="28" x="20" y="40" xlink:href="keyboard-small/a-bg-down.png" />
            <image height="32" id="keyboard-small/a-bg-up" width="28" x="20" y="40" xlink:href="keyboard-small/a-bg-up.png" />
            <image height="32" id="keyboard-small/s-bg-down" width="28" x="56" y="40" xlink:href="keyboard-small/s-bg-down.png" />
            <image height="32" id="keyboard-small/s-bg-up" width="28" x="56" y="40" xlink:href="keyboard-small/s-bg-up.png" />
            <image height="32" id="keyboard-small/d-bg-down" width="28" x="92" y="40" xlink:href="keyboard-small/d-bg-down.png" />
            <image height="32" id="keyboard-small/d-bg-up" width="28" x="92" y="40" xlink:href="keyboard-small/d-bg-up.png" />
            <image height="32" id="keyboard-small/f-bg-down" width="28" x="128" y="40" xlink:href="keyboard-small/f-bg-down.png" />
            <image height="32" id="keyboard-small/f-bg-up" width="28" x="128" y="40" xlink:href="keyboard-small/f-bg-up.png" />
            <image height="32" id="keyboard-small/g-bg-down" width="28" x="164" y="40" xlink:href="keyboard-small/g-bg-down.png" />
            <image height="32" id="keyboard-small/g-bg-up" width="28" x="164" y="40" xlink:href="keyboard-small/g-bg-up.png" />
            <image height="32" id="keyboard-small/h-bg-down" width="28" x="200" y="40" xlink:href="keyboard-small/h-bg-down.png" />
            <image height="32" id="keyboard-small/h-bg-up" width="28" x="200" y="40" xlink:href="keyboard-small/h-bg-up.png" />
            <image height="32" id="keyboard-small/j-bg-down" width="28" x="236" y="40" xlink:href="keyboard-small/j-bg-down.png" />
            <image height="32" id="keyboard-small/j-bg-up" width="28" x="236" y="40" xlink:href="keyboard-small/j-bg-up.png" />
            <image height="32" id="keyboard-small/k-bg-down" width="28" x="272" y="40" xlink:href="keyboard-small/k-bg-down.png" />
            <image height="32" id="keyboard-small/k-bg-up" width="28" x="272" y="40" xlink:href="keyboard-small/k-bg-up.png" />
            <image height="32" id="keyboard-small/l-bg-down" width="28" x="308" y="40" xlink:href="keyboard-small/l-bg-down.png" />
            <image height="32" id="keyboard-small/l-bg-up" width="28" x="308" y="40" xlink:href="keyboard-small/l-bg-up.png" />
            <image height="32" id="keyboard-small/q-bg-down" width="28" x="2" y="0" xlink:href="keyboard-small/q-bg-down.png" />
            <image height="32" id="keyboard-small/q-bg-up" width="28" x="2" y="0" xlink:href="keyboard-small/q-bg-up.png" />
            <image height="32" id="keyboard-small/w-bg-down" width="28" x="38" y="0" xlink:href="keyboard-small/w-bg-down.png" />
            <image height="32" id="keyboard-small/w-bg-up" width="28" x="38" y="0" xlink:href="keyboard-small/w-bg-up.png" />
            <image height="32" id="keyboard-small/e-bg-down" width="28" x="74" y="0" xlink:href="keyboard-small/e-bg-down.png" />
            <image height="32" id="keyboard-small/e-bg-up" width="28" x="74" y="0" xlink:href="keyboard-small/e-bg-up.png" />
            <image height="32" id="keyboard-small/r-bg-down" width="28" x="110" y="0" xlink:href="keyboard-small/r-bg-down.png" />
            <image height="32" id="keyboard-small/r-bg-up" width="28" x="110" y="0" xlink:href="keyboard-small/r-bg-up.png" />
            <image height="32" id="keyboard-small/t-bg-down" width="28" x="146" y="0" xlink:href="keyboard-small/t-bg-down.png" />
            <image height="32" id="keyboard-small/t-bg-up" width="28" x="146" y="0" xlink:href="keyboard-small/t-bg-up.png" />
            <image height="32" id="keyboard-small/y-bg-down" width="28" x="182" y="0" xlink:href="keyboard-small/y-bg-down.png" />
            <image height="32" id="keyboard-small/y-bg-up" width="28" x="182" y="0" xlink:href="keyboard-small/y-bg-up.png" />
            <image height="32" id="keyboard-small/u-bg-down" width="28" x="218" y="0" xlink:href="keyboard-small/u-bg-down.png" />
            <image height="32" id="keyboard-small/u-bg-up" width="28" x="218" y="0" xlink:href="keyboard-small/u-bg-up.png" />
            <image height="32" id="keyboard-small/i-bg-down" width="28" x="254" y="0" xlink:href="keyboard-small/i-bg-down.png" />
            <image height="32" id="keyboard-small/i-bg-up" width="28" x="254" y="0" xlink:href="keyboard-small/i-bg-up.png" />
            <image height="32" id="keyboard-small/o-bg-down" width="28" x="290" y="0" xlink:href="keyboard-small/o-bg-down.png" />
            <image height="32" id="keyboard-small/o-bg-up" width="28" x="290" y="0" xlink:href="keyboard-small/o-bg-up.png" />
            <image height="32" id="keyboard-small/p-bg-down" width="28" x="326" y="0" xlink:href="keyboard-small/p-bg-down.png" />
            <image height="32" id="keyboard-small/p-bg-up" width="28" x="326" y="0" xlink:href="keyboard-small/p-bg-up.png" />
            <image height="32" id="keyboard-small/ZZ-bg-down" width="28" x="56" y="80" xlink:href="keyboard-small/ZZ-bg-down.png" />
            <image height="32" id="keyboard-small/ZZ-bg-up" width="28" x="56" y="80" xlink:href="keyboard-small/ZZ-bg-up.png" />
            <image height="32" id="keyboard-small/XX-bg-down" width="28" x="92" y="80" xlink:href="keyboard-small/XX-bg-down.png" />
            <image height="32" id="keyboard-small/XX-bg-up" width="28" x="92" y="80" xlink:href="keyboard-small/XX-bg-up.png" />
            <image height="32" id="keyboard-small/CC-bg-down" width="28" x="128" y="80" xlink:href="keyboard-small/CC-bg-down.png" />
            <image height="32" id="keyboard-small/CC-bg-up" width="28" x="128" y="80" xlink:href="keyboard-small/CC-bg-up.png" />
            <image height="32" id="keyboard-small/VV-bg-down" width="28" x="164" y="80" xlink:href="keyboard-small/VV-bg-down.png" />
            <image height="32" id="keyboard-small/VV-bg-up" width="28" x="164" y="80" xlink:href="keyboard-small/VV-bg-up.png" />
            <image height="32" id="keyboard-small/BB-bg-down" width="28" x="200" y="80" xlink:href="keyboard-small/BB-bg-down.png" />
            <image height="32" id="keyboard-small/BB-bg-up" width="28" x="200" y="80" xlink:href="keyboard-small/BB-bg-up.png" />
            <image height="32" id="keyboard-small/NN-bg-down" width="28" x="236" y="80" xlink:href="keyboard-small/NN-bg-down.png" />
            <image height="32" id="keyboard-small/NN-bg-up" width="28" x="236" y="80" xlink:href="keyboard-small/NN-bg-up.png" />
            <image height="32" id="keyboard-small/MM-bg-down" width="28" x="272" y="80" xlink:href="keyboard-small/MM-bg-down.png" />
            <image height="32" id="keyboard-small/MM-bg-up" width="28" x="272" y="80" xlink:href="keyboard-small/MM-bg-up.png" />
            <image height="32" id="keyboard-small/AA-bg-down" width="28" x="20" y="40" xlink:href="keyboard-small/AA-bg-down.png" />
            <image height="32" id="keyboard-small/AA-bg-up" width="28" x="20" y="40" xlink:href="keyboard-small/AA-bg-up.png" />
            <image height="32" id="keyboard-small/SS-bg-down" width="28" x="56" y="40" xlink:href="keyboard-small/SS-bg-down.png" />
            <image height="32" id="keyboard-small/SS-bg-up" width="28" x="56" y="40" xlink:href="keyboard-small/SS-bg-up.png" />
            <image height="32" id="keyboard-small/DD-bg-down" width="28" x="92" y="40" xlink:href="keyboard-small/DD-bg-down.png" />
            <image height="32" id="keyboard-small/DD-bg-up" width="28" x="92" y="40" xlink:href="keyboard-small/DD-bg-up.png" />
            <image height="32" id="keyboard-small/FF-bg-down" width="28" x="128" y="40" xlink:href="keyboard-small/FF-bg-down.png" />
            <image height="32" id="keyboard-small/FF-bg-up" width="28" x="128" y="40" xlink:href="keyboard-small/FF-bg-up.png" />
            <image height="32" id="keyboard-small/GG-bg-down" width="28" x="164" y="40" xlink:href="keyboard-small/GG-bg-down.png" />
            <image height="32" id="keyboard-small/GG-bg-up" width="28" x="164" y="40" xlink:href="keyboard-small/GG-bg-up.png" />
            <image height="32" id="keyboard-small/HH-bg-down" width="28" x="200" y="40" xlink:href="keyboard-small/HH-bg-down.png" />
            <image height="32" id="keyboard-small/HH-bg-up" width="28" x="200" y="40" xlink:href="keyboard-small/HH-bg-up.png" />
            <image height="32" id="keyboard-small/JJ-bg-down" width="28" x="236" y="40" xlink:href="keyboard-small/JJ-bg-down.png" />
            <image height="32" id="keyboard-small/JJ-bg-up" width="28" x="236" y="40" xlink:href="keyboard-small/JJ-bg-up.png" />
            <image height="32" id="keyboard-small/KK-bg-down" width="28" x="272" y="40" xlink:href="keyboard-small/KK-bg-down.png" />
            <image height="32" id="keyboard-small/KK-bg-up" width="28" x="272" y="40" xlink:href="keyboard-small/KK-bg-up.png" />
            <image height="32" id="keyboard-small/LL-bg-down" width="28" x="308" y="40" xlink:href="keyboard-small/LL-bg-down.png" />
            <image height="32" id="keyboard-small/LL-bg-up" width="28" x="308" y="40" xlink:href="keyboard-small/LL-bg-up.png" />
            <image height="32" id="keyboard-small/QQ-bg-down" width="28" x="2" y="0" xlink:href="keyboard-small/QQ-bg-down.png" />
            <image height="32" id="keyboard-small/QQ-bg-up" width="28" x="2" y="0" xlink:href="keyboard-small/QQ-bg-up.png" />
            <image height="32" id="keyboard-small/WW-bg-down" width="28" x="38" y="0" xlink:href="keyboard-small/WW-bg-down.png" />
            <image height="32" id="keyboard-small/WW-bg-up" width="28" x="38" y="0" xlink:href="keyboard-small/WW-bg-up.png" />
            <image height="32" id="keyboard-small/EE-bg-down" width="28" x="74" y="0" xlink:href="keyboard-small/EE-bg-down.png" />
            <image height="32" id="keyboard-small/EE-bg-up" width="28" x="74" y="0" xlink:href="keyboard-small/EE-bg-up.png" />
            <image height="32" id="keyboard-small/RR-bg-down" width="28" x="110" y="0" xlink:href="keyboard-small/RR-bg-down.png" />
            <image height="32" id="keyboard-small/RR-bg-up" width="28" x="110" y="0" xlink:href="keyboard-small/RR-bg-up.png" />
            <image height="32" id="keyboard-small/TT-bg-down" width="28" x="146" y="0" xlink:href="keyboard-small/TT-bg-down.png" />
            <image height="32" id="keyboard-small/TT-bg-up" width="28" x="146" y="0" xlink:href="keyboard-small/TT-bg-up.png" />
            <image height="32" id="keyboard-small/YY-bg-down" width="28" x="182" y="0" xlink:href="keyboard-small/YY-bg-down.png" />
            <image height="32" id="keyboard-small/YY-bg-up" width="28" x="182" y="0" xlink:href="keyboard-small/YY-bg-up.png" />
            <image height="32" id="keyboard-small/UU-bg-down" width="28" x="218" y="0" xlink:href="keyboard-small/UU-bg-down.png" />
            <image height="32" id="keyboard-small/UU-bg-up" width="28" x="218" y="0" xlink:href="keyboard-small/UU-bg-up.png" />
            <image height="32" id="keyboard-small/II-bg-down" width="28" x="254" y="0" xlink:href="keyboard-small/II-bg-down.png" />
            <image height="32" id="keyboard-small/II-bg-up" width="28" x="254" y="0" xlink:href="keyboard-small/II-bg-up.png" />
            <image height="32" id="keyboard-small/OO-bg-down" width="28" x="290" y="0" xlink:href="keyboard-small/OO-bg-down.png" />
            <image height="32" id="keyboard-small/OO-bg-up" width="28" x="290" y="0" xlink:href="keyboard-small/OO-bg-up.png" />
            <image height="32" id="keyboard-small/PP-bg-down" width="28" x="326" y="0" xlink:href="keyboard-small/PP-bg-down.png" />
            <image height="32" id="keyboard-small/PP-bg-up" width="28" x="326" y="0" xlink:href="keyboard-small/PP-bg-up.png" />
            <image height="32" id="keyboard-small/backspace-bg-down" width="46" x="308" y="80" xlink:href="keyboard-small/backspace-bg-down.png" />
            <image height="32" id="keyboard-small/backspace-bg-up" width="46" x="308" y="80" xlink:href="keyboard-small/backspace-bg-up.png" />
            <image height="32" id="keyboard-small/caps-bg-down" width="46" x="2" y="80" xlink:href="keyboard-small/caps-bg-down.png" />
            <image height="32" id="keyboard-small/caps-bg-up" width="46" x="2" y="80" xlink:href="keyboard-small/caps-bg-up.png" />
            <image height="32" id="keyboard-small/caps-active-bg-down" width="46" x="2" y="80" xlink:href="keyboard-small/caps-active-bg-down.png" />
            <image height="32" id="keyboard-small/caps-active-bg-up" width="46" x="2" y="80" xlink:href="keyboard-small/caps-active-bg-up.png" />
            <image height="32" id="keyboard-small/com-bg-down" width="64" x="290" y="120" xlink:href="keyboard-small/com-bg-down.png" />
            <image height="32" id="keyboard-small/com-bg-up" width="64" x="290" y="120" xlink:href="keyboard-small/com-bg-up.png" />
            <image height="32" id="keyboard-small/num-bg-down" width="64" x="0" y="120" xlink:href="keyboard-small/num-bg-down.png" />
            <image height="32" id="keyboard-small/num-bg-up" width="64" x="0" y="120" xlink:href="keyboard-small/num-bg-up.png" />
            <image height="32" id="keyboard-small/abc-bg-down" width="64" x="0" y="120" xlink:href="keyboard-small/abc-bg-down.png" />
            <image height="32" id="keyboard-small/abc-bg-up" width="64" x="0" y="120" xlink:href="keyboard-small/abc-bg-up.png" />
            <image height="32" id="keyboard-small/dot-bg-down" width="28" x="254" y="120" xlink:href="keyboard-small/dot-bg-down.png" />
            <image height="32" id="keyboard-small/dot-bg-up" width="28" x="254" y="120" xlink:href="keyboard-small/dot-bg-up.png" />
            <image height="32" id="keyboard-small/space-bg-down" width="138" x="108" y="120" xlink:href="keyboard-small/space-bg-down.png" />
            <image height="32" id="keyboard-small/space-bg-up" width="138" x="108" y="120" xlink:href="keyboard-small/space-bg-up.png" />
            <image height="32" id="keyboard-small/at-bg-down" width="28" x="72" y="120" xlink:href="keyboard-small/at-bg-down.png" />
            <image height="32" id="keyboard-small/at-bg-up" width="28" x="72" y="120" xlink:href="keyboard-small/at-bg-up.png" />
            <image height="32" id="keyboard-small/at-fg-down" width="28" x="72.000000" y="120.000000" xlink:href="keyboard-small/at-fg-down.png" />
            <image height="32" id="keyboard-small/at-fg-up" width="28" x="72.000000" y="120.000000" xlink:href="keyboard-small/at-fg-up.png" />
            <image height="32" id="keyboard-small/dot-fg-down" width="28" x="254.000000" y="120.000000" xlink:href="keyboard-small/dot-fg-down.png" />
            <image height="32" id="keyboard-small/dot-fg-up" width="28" x="254.000000" y="120.000000" xlink:href="keyboard-small/dot-fg-up.png" />
            <image height="32" id="keyboard-small/space-fg-down" width="138" x="108.000000" y="120.000000" xlink:href="keyboard-small/space-fg-down.png" />
            <image height="32" id="keyboard-small/space-fg-up" width="138" x="108.000000" y="120.000000" xlink:href="keyboard-small/space-fg-up.png" />
            <image height="32" id="keyboard-small/num-fg-down" width="64" x="0.000000" y="120.000000" xlink:href="keyboard-small/num-fg-down.png" />
            <image height="32" id="keyboard-small/num-fg-up" width="64" x="0.000000" y="120.000000" xlink:href="keyboard-small/num-fg-up.png" />
            <image height="32" id="keyboard-small/abc-fg-down" width="64" x="0.000000" y="120.000000" xlink:href="keyboard-small/abc-fg-down.png" />
            <image height="32" id="keyboard-small/abc-fg-up" width="64" x="0.000000" y="120.000000" xlink:href="keyboard-small/abc-fg-up.png" />
            <image height="32" id="keyboard-small/com-fg-down" width="64" x="290.000000" y="120.000000" xlink:href="keyboard-small/com-fg-down.png" />
            <image height="32" id="keyboard-small/com-fg-up" width="64" x="290.000000" y="120.000000" xlink:href="keyboard-small/com-fg-up.png" />
            <image height="32" id="keyboard-small/caps-fg-down" width="46" x="2.000000" y="80.000000" xlink:href="keyboard-small/caps-fg-down.png" />
            <image height="32" id="keyboard-small/caps-fg-up" width="46" x="2.000000" y="80.000000" xlink:href="keyboard-small/caps-fg-up.png" />
            <image height="32" id="keyboard-small/caps-active-fg-down" width="46" x="2.000000" y="80.000000" xlink:href="keyboard-small/caps-active-fg-down.png" />
            <image height="32" id="keyboard-small/caps-active-fg-up" width="46" x="2.000000" y="80.000000" xlink:href="keyboard-small/caps-active-fg-up.png" />
            <image height="32" id="keyboard-small/backspace-fg-down" width="46" x="308.000000" y="80.000000" xlink:href="keyboard-small/backspace-fg-down.png" />
            <image height="32" id="keyboard-small/backspace-fg-up" width="46" x="308.000000" y="80.000000" xlink:href="keyboard-small/backspace-fg-up.png" />
            <image height="32" id="keyboard-small/0-fg-down" width="28" x="326.000000" y="0.000000" xlink:href="keyboard-small/0-fg-down.png" />
            <image height="32" id="keyboard-small/0-fg-up" width="28" x="326.000000" y="0.000000" xlink:href="keyboard-small/0-fg-up.png" />
            <image height="32" id="keyboard-small/9-fg-down" width="28" x="290.000000" y="0.000000" xlink:href="keyboard-small/9-fg-down.png" />
            <image height="32" id="keyboard-small/9-fg-up" width="28" x="290.000000" y="0.000000" xlink:href="keyboard-small/9-fg-up.png" />
            <image height="32" id="keyboard-small/8-fg-down" width="28" x="254.000000" y="0.000000" xlink:href="keyboard-small/8-fg-down.png" />
            <image height="32" id="keyboard-small/8-fg-up" width="28" x="254.000000" y="0.000000" xlink:href="keyboard-small/8-fg-up.png" />
            <image height="32" id="keyboard-small/7-fg-down" width="28" x="218.000000" y="0.000000" xlink:href="keyboard-small/7-fg-down.png" />
            <image height="32" id="keyboard-small/7-fg-up" width="28" x="218.000000" y="0.000000" xlink:href="keyboard-small/7-fg-up.png" />
            <image height="32" id="keyboard-small/6-fg-down" width="28" x="182.000000" y="0.000000" xlink:href="keyboard-small/6-fg-down.png" />
            <image height="32" id="keyboard-small/6-fg-up" width="28" x="182.000000" y="0.000000" xlink:href="keyboard-small/6-fg-up.png" />
            <image height="32" id="keyboard-small/5-fg-down" width="28" x="146.000000" y="0.000000" xlink:href="keyboard-small/5-fg-down.png" />
            <image height="32" id="keyboard-small/5-fg-up" width="28" x="146.000000" y="0.000000" xlink:href="keyboard-small/5-fg-up.png" />
            <image height="32" id="keyboard-small/4-fg-down" width="28" x="110.000000" y="0.000000" xlink:href="keyboard-small/4-fg-down.png" />
            <image height="32" id="keyboard-small/4-fg-up" width="28" x="110.000000" y="0.000000" xlink:href="keyboard-small/4-fg-up.png" />
            <image height="32" id="keyboard-small/3-fg-down" width="28" x="74.000000" y="0.000000" xlink:href="keyboard-small/3-fg-down.png" />
            <image height="32" id="keyboard-small/3-fg-up" width="28" x="74.000000" y="0.000000" xlink:href="keyboard-small/3-fg-up.png" />
            <image height="32" id="keyboard-small/2-fg-down" width="28" x="38.000000" y="0.000000" xlink:href="keyboard-small/2-fg-down.png" />
            <image height="32" id="keyboard-small/2-fg-up" width="28" x="38.000000" y="0.000000" xlink:href="keyboard-small/2-fg-up.png" />
            <image height="32" id="keyboard-small/1-fg-down" width="28" x="2.000000" y="0.000000" xlink:href="keyboard-small/1-fg-down.png" />
            <image height="32" id="keyboard-small/1-fg-up" width="28" x="2.000000" y="0.000000" xlink:href="keyboard-small/1-fg-up.png" />
            <image height="32" id="keyboard-small/right-parenthesis-fg-down" width="28" x="308.000000" y="40.000000" xlink:href="keyboard-small/right-parenthesis-fg-down.png" />
            <image height="32" id="keyboard-small/right-parenthesis-fg-up" width="28" x="308.000000" y="40.000000" xlink:href="keyboard-small/right-parenthesis-fg-up.png" />
            <image height="32" id="keyboard-small/left-parenthesis-fg-down" width="28" x="272.000000" y="40.000000" xlink:href="keyboard-small/left-parenthesis-fg-down.png" />
            <image height="32" id="keyboard-small/left-parenthesis-fg-up" width="28" x="272.000000" y="40.000000" xlink:href="keyboard-small/left-parenthesis-fg-up.png" />
            <image height="32" id="keyboard-small/plus-fg-down" width="28" x="236.000000" y="40.000000" xlink:href="keyboard-small/plus-fg-down.png" />
            <image height="32" id="keyboard-small/plus-fg-up" width="28" x="236.000000" y="40.000000" xlink:href="keyboard-small/plus-fg-up.png" />
            <image height="32" id="keyboard-small/hyphen-fg-down" width="28" x="200.000000" y="40.000000" xlink:href="keyboard-small/hyphen-fg-down.png" />
            <image height="32" id="keyboard-small/hyphen-fg-up" width="28" x="200.000000" y="40.000000" xlink:href="keyboard-small/hyphen-fg-up.png" />
            <image height="32" id="keyboard-small/ampersand-fg-down" width="28" x="164.000000" y="40.000000" xlink:href="keyboard-small/ampersand-fg-down.png" />
            <image height="32" id="keyboard-small/ampersand-fg-up" width="28" x="164.000000" y="40.000000" xlink:href="keyboard-small/ampersand-fg-up.png" />
            <image height="32" id="keyboard-small/underscore-fg-down" width="28" x="128.000000" y="40.000000" xlink:href="keyboard-small/underscore-fg-down.png" />
            <image height="32" id="keyboard-small/underscore-fg-up" width="28" x="128.000000" y="40.000000" xlink:href="keyboard-small/underscore-fg-up.png" />
            <image height="32" id="keyboard-small/dollar-fg-down" width="28" x="92.000000" y="40.000000" xlink:href="keyboard-small/dollar-fg-down.png" />
            <image height="32" id="keyboard-small/dollar-fg-up" width="28" x="92.000000" y="40.000000" xlink:href="keyboard-small/dollar-fg-up.png" />
            <image height="32" id="keyboard-small/pound-fg-down" width="28" x="56.000000" y="40.000000" xlink:href="keyboard-small/pound-fg-down.png" />
            <image height="32" id="keyboard-small/pound-fg-up" width="28" x="56.000000" y="40.000000" xlink:href="keyboard-small/pound-fg-up.png" />
            <image height="32" id="keyboard-small/slash-fg-down" width="28" x="20.000000" y="40.000000" xlink:href="keyboard-small/slash-fg-down.png" />
            <image height="32" id="keyboard-small/slash-fg-up" width="28" x="20.000000" y="40.000000" xlink:href="keyboard-small/slash-fg-up.png" />
            <image height="32" id="keyboard-small/comma-fg-down" width="28" x="56.000000" y="80.000000" xlink:href="keyboard-small/comma-fg-down.png" />
            <image height="32" id="keyboard-small/comma-fg-up" width="28" x="56.000000" y="80.000000" xlink:href="keyboard-small/comma-fg-up.png" />
            <image height="32" id="keyboard-small/doublequotes-fg-down" width="28" x="92.000000" y="80.000000" xlink:href="keyboard-small/doublequotes-fg-down.png" />
            <image height="32" id="keyboard-small/doublequotes-fg-up" width="28" x="92.000000" y="80.000000" xlink:href="keyboard-small/doublequotes-fg-up.png" />
            <image height="32" id="keyboard-small/singlequote-fg-down" width="28" x="128.000000" y="80.000000" xlink:href="keyboard-small/singlequote-fg-down.png" />
            <image height="32" id="keyboard-small/singlequote-fg-up" width="28" x="128.000000" y="80.000000" xlink:href="keyboard-small/singlequote-fg-up.png" />
            <image height="32" id="keyboard-small/colon-fg-down" width="28" x="164.000000" y="80.000000" xlink:href="keyboard-small/colon-fg-down.png" />
            <image height="32" id="keyboard-small/colon-fg-up" width="28" x="164.000000" y="80.000000" xlink:href="keyboard-small/colon-fg-up.png" />
            <image height="32" id="keyboard-small/semicolon-fg-down" width="28" x="200.000000" y="80.000000" xlink:href="keyboard-small/semicolon-fg-down.png" />
            <image height="32" id="keyboard-small/semicolon-fg-up" width="28" x="200.000000" y="80.000000" xlink:href="keyboard-small/semicolon-fg-up.png" />
            <image height="32" id="keyboard-small/exclamation-fg-down" width="28" x="236.000000" y="80.000000" xlink:href="keyboard-small/exclamation-fg-down.png" />
            <image height="32" id="keyboard-small/exclamation-fg-up" width="28" x="236.000000" y="80.000000" xlink:href="keyboard-small/exclamation-fg-up.png" />
            <image height="32" id="keyboard-small/question-fg-down" width="28" x="272.000000" y="80.000000" xlink:href="keyboard-small/question-fg-down.png" />
            <image height="32" id="keyboard-small/question-fg-up" width="28" x="272.000000" y="80.000000" xlink:href="keyboard-small/question-fg-up.png" />
            <image height="32" id="keyboard-small/QQ-fg-down" width="28" x="2.000000" y="0.000000" xlink:href="keyboard-small/QQ-fg-down.png" />
            <image height="32" id="keyboard-small/QQ-fg-up" width="28" x="2.000000" y="0.000000" xlink:href="keyboard-small/QQ-fg-up.png" />
            <image height="32" id="keyboard-small/WW-fg-down" width="28" x="38.000000" y="0.000000" xlink:href="keyboard-small/WW-fg-down.png" />
            <image height="32" id="keyboard-small/WW-fg-up" width="28" x="38.000000" y="0.000000" xlink:href="keyboard-small/WW-fg-up.png" />
            <image height="32" id="keyboard-small/EE-fg-down" width="28" x="74.000000" y="0.000000" xlink:href="keyboard-small/EE-fg-down.png" />
            <image height="32" id="keyboard-small/EE-fg-up" width="28" x="74.000000" y="0.000000" xlink:href="keyboard-small/EE-fg-up.png" />
            <image height="32" id="keyboard-small/RR-fg-down" width="28" x="110.000000" y="0.000000" xlink:href="keyboard-small/RR-fg-down.png" />
            <image height="32" id="keyboard-small/RR-fg-up" width="28" x="110.000000" y="0.000000" xlink:href="keyboard-small/RR-fg-up.png" />
            <image height="32" id="keyboard-small/TT-fg-down" width="28" x="146.000000" y="0.000000" xlink:href="keyboard-small/TT-fg-down.png" />
            <image height="32" id="keyboard-small/TT-fg-up" width="28" x="146.000000" y="0.000000" xlink:href="keyboard-small/TT-fg-up.png" />
            <image height="32" id="keyboard-small/YY-fg-down" width="28" x="182.000000" y="0.000000" xlink:href="keyboard-small/YY-fg-down.png" />
            <image height="32" id="keyboard-small/YY-fg-up" width="28" x="182.000000" y="0.000000" xlink:href="keyboard-small/YY-fg-up.png" />
            <image height="32" id="keyboard-small/UU-fg-down" width="28" x="218.000000" y="0.000000" xlink:href="keyboard-small/UU-fg-down.png" />
            <image height="32" id="keyboard-small/UU-fg-up" width="28" x="218.000000" y="0.000000" xlink:href="keyboard-small/UU-fg-up.png" />
            <image height="32" id="keyboard-small/II-fg-down" width="28" x="254.000000" y="0.000000" xlink:href="keyboard-small/II-fg-down.png" />
            <image height="32" id="keyboard-small/II-fg-up" width="28" x="254.000000" y="0.000000" xlink:href="keyboard-small/II-fg-up.png" />
            <image height="32" id="keyboard-small/OO-fg-down" width="28" x="290.000000" y="0.000000" xlink:href="keyboard-small/OO-fg-down.png" />
            <image height="32" id="keyboard-small/OO-fg-up" width="28" x="290.000000" y="0.000000" xlink:href="keyboard-small/OO-fg-up.png" />
            <image height="32" id="keyboard-small/PP-fg-down" width="28" x="326.000000" y="0.000000" xlink:href="keyboard-small/PP-fg-down.png" />
            <image height="32" id="keyboard-small/PP-fg-up" width="28" x="326.000000" y="0.000000" xlink:href="keyboard-small/PP-fg-up.png" />
            <image height="32" id="keyboard-small/AA-fg-down" width="28" x="20.000000" y="40.000000" xlink:href="keyboard-small/AA-fg-down.png" />
            <image height="32" id="keyboard-small/AA-fg-up" width="28" x="20.000000" y="40.000000" xlink:href="keyboard-small/AA-fg-up.png" />
            <image height="32" id="keyboard-small/SS-fg-down" width="28" x="56.000000" y="40.000000" xlink:href="keyboard-small/SS-fg-down.png" />
            <image height="32" id="keyboard-small/SS-fg-up" width="28" x="56.000000" y="40.000000" xlink:href="keyboard-small/SS-fg-up.png" />
            <image height="32" id="keyboard-small/DD-fg-down" width="28" x="92.000000" y="40.000000" xlink:href="keyboard-small/DD-fg-down.png" />
            <image height="32" id="keyboard-small/DD-fg-up" width="28" x="92.000000" y="40.000000" xlink:href="keyboard-small/DD-fg-up.png" />
            <image height="32" id="keyboard-small/FF-fg-down" width="28" x="128.000000" y="40.000000" xlink:href="keyboard-small/FF-fg-down.png" />
            <image height="32" id="keyboard-small/FF-fg-up" width="28" x="128.000000" y="40.000000" xlink:href="keyboard-small/FF-fg-up.png" />
            <image height="32" id="keyboard-small/GG-fg-down" width="28" x="164.000000" y="40.000000" xlink:href="keyboard-small/GG-fg-down.png" />
            <image height="32" id="keyboard-small/GG-fg-up" width="28" x="164.000000" y="40.000000" xlink:href="keyboard-small/GG-fg-up.png" />
            <image height="32" id="keyboard-small/HH-fg-down" width="28" x="200.000000" y="40.000000" xlink:href="keyboard-small/HH-fg-down.png" />
            <image height="32" id="keyboard-small/HH-fg-up" width="28" x="200.000000" y="40.000000" xlink:href="keyboard-small/HH-fg-up.png" />
            <image height="32" id="keyboard-small/JJ-fg-down" width="28" x="236.000000" y="40.000000" xlink:href="keyboard-small/JJ-fg-down.png" />
            <image height="32" id="keyboard-small/JJ-fg-up" width="28" x="236.000000" y="40.000000" xlink:href="keyboard-small/JJ-fg-up.png" />
            <image height="32" id="keyboard-small/KK-fg-down" width="28" x="272.000000" y="40.000000" xlink:href="keyboard-small/KK-fg-down.png" />
            <image height="32" id="keyboard-small/KK-fg-up" width="28" x="272.000000" y="40.000000" xlink:href="keyboard-small/KK-fg-up.png" />
            <image height="32" id="keyboard-small/LL-fg-down" width="28" x="308.000000" y="40.000000" xlink:href="keyboard-small/LL-fg-down.png" />
            <image height="32" id="keyboard-small/LL-fg-up" width="28" x="308.000000" y="40.000000" xlink:href="keyboard-small/LL-fg-up.png" />
            <image height="32" id="keyboard-small/ZZ-fg-down" width="28" x="56.000000" y="80.000000" xlink:href="keyboard-small/ZZ-fg-down.png" />
            <image height="32" id="keyboard-small/ZZ-fg-up" width="28" x="56.000000" y="80.000000" xlink:href="keyboard-small/ZZ-fg-up.png" />
            <image height="32" id="keyboard-small/XX-fg-down" width="28" x="92.000000" y="80.000000" xlink:href="keyboard-small/XX-fg-down.png" />
            <image height="32" id="keyboard-small/XX-fg-up" width="28" x="92.000000" y="80.000000" xlink:href="keyboard-small/XX-fg-up.png" />
            <image height="32" id="keyboard-small/CC-fg-down" width="28" x="128.000000" y="80.000000" xlink:href="keyboard-small/CC-fg-down.png" />
            <image height="32" id="keyboard-small/CC-fg-up" width="28" x="128.000000" y="80.000000" xlink:href="keyboard-small/CC-fg-up.png" />
            <image height="32" id="keyboard-small/VV-fg-down" width="28" x="164.000000" y="80.000000" xlink:href="keyboard-small/VV-fg-down.png" />
            <image height="32" id="keyboard-small/VV-fg-up" width="28" x="164.000000" y="80.000000" xlink:href="keyboard-small/VV-fg-up.png" />
            <image height="32" id="keyboard-small/BB-fg-down" width="28" x="200.000000" y="80.000000" xlink:href="keyboard-small/BB-fg-down.png" />
            <image height="32" id="keyboard-small/BB-fg-up" width="28" x="200.000000" y="80.000000" xlink:href="keyboard-small/BB-fg-up.png" />
            <image height="32" id="keyboard-small/NN-fg-down" width="28" x="236.000000" y="80.000000" xlink:href="keyboard-small/NN-fg-down.png" />
            <image height="32" id="keyboard-small/NN-fg-up" width="28" x="236.000000" y="80.000000" xlink:href="keyboard-small/NN-fg-up.png" />
            <image height="32" id="keyboard-small/MM-fg-down" width="28" x="272.000000" y="80.000000" xlink:href="keyboard-small/MM-fg-down.png" />
            <image height="32" id="keyboard-small/MM-fg-up" width="28" x="272.000000" y="80.000000" xlink:href="keyboard-small/MM-fg-up.png" />
            <image height="32" id="keyboard-small/q-fg-down" width="28" x="2.000000" y="0.000000" xlink:href="keyboard-small/q-fg-down.png" />
            <image height="32" id="keyboard-small/q-fg-up" width="28" x="2.000000" y="0.000000" xlink:href="keyboard-small/q-fg-up.png" />
            <image height="32" id="keyboard-small/w-fg-down" width="28" x="38.000000" y="0.000000" xlink:href="keyboard-small/w-fg-down.png" />
            <image height="32" id="keyboard-small/w-fg-up" width="28" x="38.000000" y="0.000000" xlink:href="keyboard-small/w-fg-up.png" />
            <image height="32" id="keyboard-small/e-fg-down" width="28" x="74.000000" y="0.000000" xlink:href="keyboard-small/e-fg-down.png" />
            <image height="32" id="keyboard-small/e-fg-up" width="28" x="74.000000" y="0.000000" xlink:href="keyboard-small/e-fg-up.png" />
            <image height="32" id="keyboard-small/r-fg-down" width="28" x="110.000000" y="0.000000" xlink:href="keyboard-small/r-fg-down.png" />
            <image height="32" id="keyboard-small/r-fg-up" width="28" x="110.000000" y="0.000000" xlink:href="keyboard-small/r-fg-up.png" />
            <image height="32" id="keyboard-small/t-fg-down" width="28" x="146.000000" y="0.000000" xlink:href="keyboard-small/t-fg-down.png" />
            <image height="32" id="keyboard-small/t-fg-up" width="28" x="146.000000" y="0.000000" xlink:href="keyboard-small/t-fg-up.png" />
            <image height="32" id="keyboard-small/y-fg-down" width="28" x="182.000000" y="0.000000" xlink:href="keyboard-small/y-fg-down.png" />
            <image height="32" id="keyboard-small/y-fg-up" width="28" x="182.000000" y="0.000000" xlink:href="keyboard-small/y-fg-up.png" />
            <image height="32" id="keyboard-small/u-fg-down" width="28" x="218.000000" y="0.000000" xlink:href="keyboard-small/u-fg-down.png" />
            <image height="32" id="keyboard-small/u-fg-up" width="28" x="218.000000" y="0.000000" xlink:href="keyboard-small/u-fg-up.png" />
            <image height="32" id="keyboard-small/i-fg-down" width="28" x="254.000000" y="0.000000" xlink:href="keyboard-small/i-fg-down.png" />
            <image height="32" id="keyboard-small/i-fg-up" width="28" x="254.000000" y="0.000000" xlink:href="keyboard-small/i-fg-up.png" />
            <image height="32" id="keyboard-small/o-fg-down" width="28" x="290.000000" y="0.000000" xlink:href="keyboard-small/o-fg-down.png" />
            <image height="32" id="keyboard-small/o-fg-up" width="28" x="290.000000" y="0.000000" xlink:href="keyboard-small/o-fg-up.png" />
            <image height="32" id="keyboard-small/p-fg-down" width="28" x="326.000000" y="0.000000" xlink:href="keyboard-small/p-fg-down.png" />
            <image height="32" id="keyboard-small/p-fg-up" width="28" x="326.000000" y="0.000000" xlink:href="keyboard-small/p-fg-up.png" />
            <image height="32" id="keyboard-small/a-fg-down" width="28" x="20.000000" y="40.000000" xlink:href="keyboard-small/a-fg-down.png" />
            <image height="32" id="keyboard-small/a-fg-up" width="28" x="20.000000" y="40.000000" xlink:href="keyboard-small/a-fg-up.png" />
            <image height="32" id="keyboard-small/s-fg-down" width="28" x="56.000000" y="40.000000" xlink:href="keyboard-small/s-fg-down.png" />
            <image height="32" id="keyboard-small/s-fg-up" width="28" x="56.000000" y="40.000000" xlink:href="keyboard-small/s-fg-up.png" />
            <image height="32" id="keyboard-small/d-fg-down" width="28" x="92.000000" y="40.000000" xlink:href="keyboard-small/d-fg-down.png" />
            <image height="32" id="keyboard-small/d-fg-up" width="28" x="92.000000" y="40.000000" xlink:href="keyboard-small/d-fg-up.png" />
            <image height="32" id="keyboard-small/f-fg-down" width="28" x="128.000000" y="40.000000" xlink:href="keyboard-small/f-fg-down.png" />
            <image height="32" id="keyboard-small/f-fg-up" width="28" x="128.000000" y="40.000000" xlink:href="keyboard-small/f-fg-up.png" />
            <image height="32" id="keyboard-small/g-fg-down" width="28" x="164.000000" y="40.000000" xlink:href="keyboard-small/g-fg-down.png" />
            <image height="32" id="keyboard-small/g-fg-up" width="28" x="164.000000" y="40.000000" xlink:href="keyboard-small/g-fg-up.png" />
            <image height="32" id="keyboard-small/h-fg-down" width="28" x="200.000000" y="40.000000" xlink:href="keyboard-small/h-fg-down.png" />
            <image height="32" id="keyboard-small/h-fg-up" width="28" x="200.000000" y="40.000000" xlink:href="keyboard-small/h-fg-up.png" />
            <image height="32" id="keyboard-small/j-fg-down" width="28" x="236.000000" y="40.000000" xlink:href="keyboard-small/j-fg-down.png" />
            <image height="32" id="keyboard-small/j-fg-up" width="28" x="236.000000" y="40.000000" xlink:href="keyboard-small/j-fg-up.png" />
            <image height="32" id="keyboard-small/k-fg-down" width="28" x="272.000000" y="40.000000" xlink:href="keyboard-small/k-fg-down.png" />
            <image height="32" id="keyboard-small/k-fg-up" width="28" x="272.000000" y="40.000000" xlink:href="keyboard-small/k-fg-up.png" />
            <image height="33.1428571" id="keyboard-small/l-fg-down" width="29" x="308.000000" y="40.000000" xlink:href="keyboard-small/l-fg-down.png" />
            <image height="32" id="keyboard-small/l-fg-up" width="28" x="308.000000" y="40.000000" xlink:href="keyboard-small/l-fg-up.png" />
            <image height="32" id="keyboard-small/m-fg-down" width="28" x="272.000000" y="80.000000" xlink:href="keyboard-small/m-fg-down.png" />
            <image height="32" id="keyboard-small/m-fg-up" width="28" x="272.000000" y="80.000000" xlink:href="keyboard-small/m-fg-up.png" />
            <image height="32" id="keyboard-small/n-fg-down" width="28" x="236.000000" y="80.000000" xlink:href="keyboard-small/n-fg-down.png" />
            <image height="32" id="keyboard-small/n-fg-up" width="28" x="236.000000" y="80.000000" xlink:href="keyboard-small/n-fg-up.png" />
            <image height="32" id="keyboard-small/b-fg-down" width="28" x="200.000000" y="80.000000" xlink:href="keyboard-small/b-fg-down.png" />
            <image height="32" id="keyboard-small/b-fg-up" width="28" x="200.000000" y="80.000000" xlink:href="keyboard-small/b-fg-up.png" />
            <image height="32" id="keyboard-small/v-fg-down" width="28" x="164.000000" y="80.000000" xlink:href="keyboard-small/v-fg-down.png" />
            <image height="32" id="keyboard-small/v-fg-up" width="28" x="164.000000" y="80.000000" xlink:href="keyboard-small/v-fg-up.png" />
            <image height="32" id="keyboard-small/c-fg-down" width="28" x="128.000000" y="80.000000" xlink:href="keyboard-small/c-fg-down.png" />
            <image height="32" id="keyboard-small/c-fg-up" width="28" x="128.000000" y="80.000000" xlink:href="keyboard-small/c-fg-up.png" />
            <image height="32" id="keyboard-small/x-fg-down" width="28" x="92.000000" y="80.000000" xlink:href="keyboard-small/x-fg-down.png" />
            <image height="32" id="keyboard-small/x-fg-up" width="28" x="92.000000" y="80.000000" xlink:href="keyboard-small/x-fg-up.png" />
            <image height="32" id="keyboard-small/z-fg-down" width="28" x="56.000000" y="80.000000" xlink:href="keyboard-small/z-fg-down.png" />
            <image height="32" id="keyboard-small/z-fg-up" width="28" x="56.000000" y="80.000000" xlink:href="keyboard-small/z-fg-up.png" />
            </g>
    </g>
</svg>